<?xml version="1.0" standalone="no"?>
<!DOCTYPE svg PUBLIC "-//W3C//DTD SVG 20010904//EN"
 "http://www.w3.org/TR/2001/REC-SVG-20010904/DTD/svg10.dtd">
<svg version="1.0" xmlns="http://www.w3.org/2000/svg"
 width="126.000000pt" height="106.000000pt" viewBox="0 0 126.000000 106.000000"
 preserveAspectRatio="xMidYMid meet">
<metadata>
Created by potrace 1.10, written by Peter Selinger 2001-2011
</metadata>
<g transform="translate(0.000000,106.000000) scale(0.100000,-0.100000)"
fill="#000000" stroke="none">
<path d="M236 889 c2 -4 -5 -9 -16 -12 -29 -7 -43 -53 -37 -124 4 -52 9 -67
34 -92 28 -27 30 -36 32 -105 2 -71 0 -76 -31 -112 -31 -35 -33 -41 -33 -115
0 -114 -1 -114 190 -114 185 0 186 0 187 97 1 64 1 65 24 54 13 -6 24 -14 24
-18 0 -21 82 0 101 25 3 5 9 -22 12 -58 7 -99 8 -100 188 -100 146 0 151 1
170 24 15 18 19 39 19 96 0 68 -2 76 -29 103 -27 27 -30 36 -32 109 -3 77 -2
81 29 114 30 32 32 39 32 106 0 39 -3 78 -6 87 -14 37 -144 52 -256 31 -43 -8
-89 -55 -158 -158 -14 -20 -32 -36 -40 -35 -8 2 -32 28 -53 58 -70 101 -95
125 -140 137 -43 12 -218 13 -211 2z m319 -149 c47 -66 87 -120 88 -120 1 0
40 54 87 120 l85 120 127 0 127 0 3 -85 3 -85 -32 0 -33 0 0 -135 0 -135 30 0
30 0 0 -90 0 -90 -160 0 -160 0 0 90 0 90 35 0 35 0 0 87 0 87 -29 -40 c-15
-21 -55 -76 -88 -122 l-61 -82 -86 120 c-48 66 -88 120 -89 120 -1 0 -2 -38
-2 -85 l0 -85 38 0 37 0 0 -90 0 -90 -165 0 -165 0 0 90 0 90 35 0 35 0 0 135
0 135 -35 0 -35 0 0 85 0 85 129 0 130 0 86 -120z"/>
<path d="M1237 872 c-15 -16 -17 -54 -17 -323 0 -294 3 -329 30 -329 3 0 5
151 5 335 0 184 0 335 -1 335 0 0 -8 -8 -17 -18z"/>
</g>
</svg>
