<?xml version="1.0" standalone="no"?>
<!DOCTYPE svg PUBLIC "-//W3C//DTD SVG 20010904//EN"
 "http://www.w3.org/TR/2001/REC-SVG-20010904/DTD/svg10.dtd">
<svg version="1.0" xmlns="http://www.w3.org/2000/svg"
 width="126.000000pt" height="120.000000pt" viewBox="0 0 126.000000 120.000000"
 preserveAspectRatio="xMidYMid meet">
<metadata>
Created by potrace 1.10, written by Peter Selinger 2001-2011
</metadata>
<g transform="translate(0.000000,120.000000) scale(0.100000,-0.100000)"
fill="#000000" stroke="none">
<path d="M10 600 c0 -527 2 -600 15 -600 13 0 15 73 15 600 0 527 -2 600 -15
600 -13 0 -15 -73 -15 -600z"/>
<path d="M1220 600 c0 -527 2 -600 15 -600 13 0 15 73 15 600 0 527 -2 600
-15 600 -13 0 -15 -73 -15 -600z"/>
<path d="M551 1001 c-19 -14 -31 -17 -49 -10 -30 11 -105 -19 -121 -49 -18
-34 -14 -198 6 -228 21 -33 18 -115 -8 -196 -10 -34 -19 -83 -19 -110 0 -39
-6 -57 -25 -80 -52 -62 -23 -94 64 -71 67 18 108 14 194 -21 96 -38 156 -43
212 -16 41 20 85 61 85 81 0 4 -23 -6 -52 -24 -45 -28 -60 -32 -117 -32 -52 1
-79 7 -126 30 -77 38 -159 41 -224 8 -57 -28 -66 -20 -21 18 70 58 167 65 275
19 39 -17 86 -33 105 -36 41 -7 112 10 129 30 9 11 -4 13 -73 12 -46 -1 -86 1
-89 4 -3 3 -7 44 -8 92 -3 68 -1 84 8 76 18 -14 60 -2 73 22 6 11 11 47 11 80
1 57 2 60 33 71 59 21 71 51 69 164 -2 99 -3 100 -34 127 -37 31 -64 38 -96
24 -18 -7 -28 -5 -43 9 -31 28 -127 32 -159 6z m149 -71 c0 -40 3 -50 17 -50
9 0 43 -7 75 -16 l58 -17 0 -56 c-1 -47 -4 -59 -24 -73 -19 -14 -31 -15 -57
-8 -19 6 -51 10 -72 10 -35 0 -37 2 -31 25 8 34 -2 32 -21 -5 -17 -34 -22
-225 -5 -235 6 -3 10 -42 10 -87 0 -72 -2 -79 -17 -73 -74 32 -107 38 -152 28
-25 -5 -54 -13 -63 -18 -16 -6 -18 0 -18 60 0 51 4 71 16 79 12 9 17 37 21
118 5 101 5 107 -16 119 -19 13 -21 23 -21 105 l0 91 48 21 47 21 3 -45 c3
-36 6 -44 18 -40 9 3 22 6 30 6 10 0 14 13 14 45 l0 45 70 0 70 0 0 -50z m148
-33 l3 -35 -45 16 c-43 16 -46 19 -46 54 l0 37 43 -19 c36 -16 42 -24 45 -53z
m-108 -246 c0 -21 3 -59 6 -85 7 -45 6 -46 -21 -46 l-28 0 7 61 c3 34 6 73 6
85 0 15 6 24 15 24 11 0 15 -11 15 -39z"/>
<path d="M510 658 c0 -18 -3 -57 -6 -85 -7 -53 -7 -53 21 -53 23 0 26 3 21 23
-3 12 -6 50 -6 85 0 48 -3 62 -15 62 -10 0 -15 -10 -15 -32z"/>
</g>
</svg>
