<?xml version="1.0" standalone="no"?>
<!DOCTYPE svg PUBLIC "-//W3C//DTD SVG 20010904//EN"
 "http://www.w3.org/TR/2001/REC-SVG-20010904/DTD/svg10.dtd">
<svg version="1.0" xmlns="http://www.w3.org/2000/svg"
 width="300.000000pt" height="179.000000pt" viewBox="0 0 300.000000 179.000000"
 preserveAspectRatio="xMidYMid meet">
<metadata>
Created by potrace 1.10, written by Peter Selinger 2001-2011
</metadata>
<g transform="translate(0.000000,179.000000) scale(0.100000,-0.100000)"
fill="#000000" stroke="none">
<path d="M747 1783 c414 -2 1092 -2 1505 0 414 1 76 2 -752 2 -828 0 -1166 -1
-753 -2z"/>
<path d="M292 1627 c-20 -21 -22 -34 -22 -153 0 -123 1 -132 23 -152 19 -18
35 -22 84 -22 57 0 92 -14 93 -38 1 -13 18 -86 30 -127 6 -22 15 -58 20 -80
10 -50 56 -233 75 -300 46 -161 157 -636 152 -649 -6 -14 -49 -16 -377 -16
-322 0 -370 -2 -370 -15 0 -13 51 -15 403 -15 l403 0 -86 343 c-48 188 -120
475 -160 637 l-73 295 -91 -3 -91 -4 0 146 0 146 413 0 412 0 0 -146 0 -146
-106 4 c-102 3 -105 3 -99 -17 22 -80 184 -736 187 -758 5 -46 21 -32 34 30 7
32 57 225 113 428 55 204 113 422 129 485 l29 115 144 3 144 2 113 -457 c154
-626 160 -649 161 -643 1 3 17 61 35 130 90 339 176 670 176 677 0 4 -43 6
-95 5 l-95 -4 0 146 0 146 310 0 310 0 0 -146 0 -145 -92 2 -93 2 -66 -254
c-101 -388 -261 -992 -266 -1006 -4 -10 88 -13 446 -13 394 0 451 2 451 15 0
13 -53 15 -420 15 -393 0 -420 1 -421 18 -1 9 0 22 1 27 1 6 3 17 5 25 2 8 13
51 24 95 12 44 24 89 26 100 3 11 21 81 40 155 20 74 38 142 40 150 15 60 67
259 85 325 12 44 32 122 45 173 32 132 41 142 116 141 52 -1 65 2 86 23 23 23
24 30 24 153 0 118 -2 130 -22 152 l-22 23 -299 0 c-374 0 -340 20 -340 -198
1 -133 11 -152 85 -153 28 -1 58 -1 65 0 21 3 24 -26 9 -86 -9 -32 -30 -112
-47 -178 -17 -66 -40 -151 -51 -190 -11 -38 -22 -78 -24 -88 -20 -92 -34 -77
-69 73 -15 65 -71 291 -148 595 -60 238 -46 225 -227 225 -130 0 -139 -1 -158
-22 -21 -23 -43 -86 -87 -258 -14 -52 -39 -149 -56 -215 -18 -66 -36 -136 -40
-155 -11 -46 -77 -279 -86 -299 -9 -24 -18 5 -94 304 -46 185 -64 274 -57 283
6 7 34 12 73 12 98 0 104 9 104 169 0 115 -2 131 -21 155 l-20 26 -403 0 -403
0 -21 -23z"/>
<path d="M1416 701 c-33 -132 -147 -568 -163 -623 -5 -17 9 -18 202 -18 194 0
206 1 201 18 -4 10 -49 188 -101 396 -52 209 -96 380 -97 381 -2 2 -21 -68
-42 -154z m59 -58 c4 -21 10 -49 15 -63 36 -114 117 -453 112 -472 -4 -16 -19
-18 -147 -18 -122 0 -144 2 -149 16 -3 9 7 64 23 123 16 58 39 144 51 191 12
47 31 113 41 147 10 34 19 71 19 81 0 10 3 22 7 25 14 15 22 6 28 -30z"/>
<path d="M918 63 c34 -2 88 -2 120 0 31 2 3 3 -63 3 -66 0 -92 -1 -57 -3z"/>
</g>
</svg>
